<svg width="79" height="100" viewBox="0 0 79 100" fill="none" xmlns="http://www.w3.org/2000/svg">
<path fill-rule="evenodd" clip-rule="evenodd" d="M16.3184 81.2001H28.65V94.2001H2.64998C1.21404 94.2001 0.0499841 95.3642 0.0499841 96.8001C0.0499841 98.236 1.21404 99.4001 2.64998 99.4001H28.65H49.45H75.45C76.8859 99.4001 78.05 98.236 78.05 96.8001C78.05 95.3642 76.8859 94.2001 75.45 94.2001H49.45V81.2001H61.15C65.4578 81.2001 68.95 77.7079 68.95 73.4001V57.8001C68.95 53.4923 65.4578 50.0001 61.15 50.0001H49.45V41.4657L58.888 40.8057C60.8333 40.6697 62.6571 39.81 63.9999 38.396L70.6279 31.4166C73.7806 28.0967 73.4094 22.7881 69.8253 19.9393L62.2905 13.9503C60.7639 12.7369 58.8383 12.1394 56.893 12.2754L49.45 12.7959V6.3201C49.45 3.16103 46.889 0.600098 43.73 0.600098H34.37C31.2109 0.600098 28.65 3.16107 28.65 6.3201V14.2503L20.4806 14.8216C16.1833 15.1221 12.9432 18.8494 13.2437 23.1467L14.1505 36.115C14.451 40.4124 18.1783 43.6524 22.4756 43.3519L28.65 42.9202V50.0001H16.3184C14.3684 50.0001 12.4891 50.7305 11.0509 52.0474L2.53249 59.8474C-0.844158 62.9393 -0.844168 68.2609 2.53249 71.3528L11.0509 79.1528C12.4891 80.4697 14.3684 81.2001 16.3184 81.2001ZM33.85 42.5566V50.0001H44.25V41.8293L33.85 42.5566ZM33.85 13.8867L44.25 13.1595V6.3201C44.25 6.03291 44.0172 5.8001 43.73 5.8001H34.37C34.0828 5.8001 33.85 6.03291 33.85 6.3201V13.8867ZM44.25 94.2001V81.2001H33.85V94.2001H44.25ZM61.15 55.2001C62.5859 55.2001 63.75 56.3642 63.75 57.8001V73.4001C63.75 74.836 62.5859 76.0001 61.15 76.0001H16.3184C15.6684 76.0001 15.042 75.7566 14.5626 75.3177L6.04416 67.5177C4.91861 66.487 4.91861 64.7132 6.04416 63.6825L14.5626 55.8825C15.042 55.4436 15.6684 55.2001 16.3184 55.2001H52.05V65.6001C52.05 67.036 53.214 68.2001 54.65 68.2001C56.0859 68.2001 57.25 67.036 57.25 65.6001V55.2001H61.15ZM18.431 22.784C18.3309 21.3515 19.4109 20.1091 20.8433 20.0089L23.6771 19.8108L24.3568 29.5312C24.457 30.9636 25.6994 32.0437 27.1319 31.9435C28.5643 31.8433 29.6443 30.6009 29.5442 29.1685L28.8644 19.448L57.2557 17.4627C57.9041 17.4174 58.546 17.6166 59.0549 18.021L66.5897 24.01C67.7844 24.9596 67.9081 26.7292 66.8572 27.8358L60.2292 34.8151C59.7816 35.2865 59.1737 35.5731 58.5253 35.6184L22.1129 38.1646C20.6805 38.2648 19.438 37.1847 19.3379 35.7523L18.431 22.784Z" fill="white"/>
</svg>
