<svg width="68" height="100" viewBox="0 0 68 100" fill="none" xmlns="http://www.w3.org/2000/svg">
<path fill-rule="evenodd" clip-rule="evenodd" d="M29.4957 23.0093C25.2776 23.0093 21.8582 26.4287 21.8582 30.6468V56.177L19.7736 54.5415C16.2916 51.8094 11.2857 52.2549 8.34086 55.5589C5.75174 58.4638 5.50194 62.7684 7.73766 65.9532L19.005 82.0038C21.0074 84.8563 22.4365 88.0705 23.2131 91.468C24.25 96.0046 28.2856 99.2218 32.9391 99.2218H47.8546C53.9183 99.2218 59.1766 95.0297 60.5277 89.1185L61.1577 86.3625C65.1833 80.961 67.3582 74.4039 67.3582 67.6665V57.2968H67.3577V56.9718C67.3577 52.7537 63.9383 49.3343 59.7202 49.3343C58.7664 49.3343 57.8534 49.5091 57.0115 49.8285C56.1243 46.593 53.1624 44.2155 49.6452 44.2155C48.6407 44.2155 47.6815 44.4095 46.8029 44.7619C45.7791 41.7507 42.9277 39.5843 39.5702 39.5843C38.7181 39.5843 37.8985 39.7238 37.1332 39.9813V30.6468C37.1332 26.4287 33.7137 23.0093 29.4957 23.0093ZM57.2827 56.9718V57.703V61.8468C57.2827 63.2827 56.1187 64.4468 54.6827 64.4468C53.2468 64.4468 52.0827 63.2827 52.0827 61.8468V57.703V56.9718V51.853C52.0827 50.5068 50.9914 49.4155 49.6452 49.4155C48.299 49.4155 47.2077 50.5068 47.2077 51.853V55.103V57.703C47.2077 59.139 46.0437 60.303 44.6077 60.303C43.1718 60.303 42.0077 59.139 42.0077 57.703V55.103V51.853V47.2218C42.0077 45.8756 40.9164 44.7843 39.5702 44.7843C38.2396 44.7843 37.158 45.8505 37.1332 47.1752V48.3593H37.1327V55.103C37.1327 56.539 35.9687 57.703 34.5327 57.703C33.0968 57.703 31.9327 56.539 31.9327 55.103V47.2218L31.9332 47.1393V30.6468C31.9332 29.3006 30.8418 28.2093 29.4957 28.2093C28.1495 28.2093 27.0582 29.3006 27.0582 30.6468V61.5218C27.0582 62.5168 26.4903 63.4246 25.5955 63.8598C24.7007 64.2951 23.636 64.1815 22.8532 63.5673L16.5638 58.6325C15.2416 57.5951 13.3409 57.7643 12.2227 59.0188C11.2396 60.1218 11.1448 61.7563 11.9937 62.9655L23.261 79.0162C25.6503 82.4198 27.3557 86.2553 28.2824 90.3093C28.7788 92.4814 30.711 94.0218 32.9391 94.0218H47.8546C51.4928 94.0218 54.6478 91.5066 55.4585 87.9598L56.0983 85.1607C56.2535 84.4817 56.5491 83.8427 56.9661 83.2849C60.3368 78.7754 62.1581 73.2965 62.1581 67.6665V61.8949C62.1579 61.8789 62.1577 61.8629 62.1577 61.8468V56.9718C62.1577 55.6256 61.0664 54.5343 59.7202 54.5343C58.374 54.5343 57.2827 55.6256 57.2827 56.9718Z" fill="white"/>
<path d="M54.9024 35.8346C55.6113 32.889 55.8136 29.7687 55.4226 26.5845C53.6726 12.3321 40.7002 2.1969 26.4478 3.94688C12.1954 5.69685 2.06023 18.6693 3.8102 32.9217C4.40812 37.7913 6.31616 42.1803 9.13773 45.7789" stroke="white" stroke-width="5.2" stroke-linecap="round"/>
<path d="M16.1456 34.9727C15.6066 33.5807 15.2758 32.0807 15.1935 30.5089C14.776 22.5424 20.8956 15.7458 28.8621 15.3283C36.8287 14.9108 43.6253 21.0304 44.0428 28.997C44.1251 30.5688 43.953 32.0951 43.5624 33.5359" stroke="white" stroke-width="5.2" stroke-linecap="round"/>
</svg>
