<svg width="90" height="90" viewBox="0 0 90 90" fill="none" xmlns="http://www.w3.org/2000/svg">
<path fill-rule="evenodd" clip-rule="evenodd" d="M60.5998 5.6751C60.5998 2.80322 58.2717 0.475098 55.3998 0.475098H52.1498C49.2779 0.475098 46.9498 2.80322 46.9498 5.6751V6.73135H43.0498V5.6751C43.0498 2.80322 40.7217 0.475098 37.8498 0.475098H34.5998C31.7279 0.475098 29.3998 2.80322 29.3998 5.6751V6.73135H4.94355V41.2626H13.7998V52.1501C6.6201 52.1501 0.799805 57.9704 0.799805 65.1501V81.7251C0.799805 86.0329 4.29198 89.5251 8.5998 89.5251H13.7998H18.9998H70.9998H76.1998H81.3998C85.7076 89.5251 89.1998 86.0329 89.1998 81.7251V65.1501C89.1998 57.9704 83.3795 52.1501 76.1998 52.1501V41.2626H85.0548V6.73135H60.5998V5.6751ZM29.3998 11.9313H10.1436V36.0626H13.7998V34.9251C13.7998 25.7563 20.5798 18.171 29.3998 16.9094V11.9313ZM34.5998 16.7251H37.8498V5.6751H34.5998V16.7251ZM43.0498 21.9251H31.9998C31.1094 21.9251 30.2399 22.0146 29.3998 22.1851V39.0689C29.3998 44.5095 32.742 49.1696 37.4853 51.1078C38.4018 47.8193 41.419 45.4063 44.9998 45.4063C48.5806 45.4063 51.5978 47.8193 52.5143 51.1078C57.2576 49.1696 60.5998 44.5095 60.5998 39.0689V22.1851C59.7597 22.0146 58.8902 21.9251 57.9998 21.9251H46.9498H43.0498ZM43.0498 16.7251V11.9313H46.9498V16.7251H43.0498ZM55.3998 16.7251H52.1498V5.6751H55.3998V16.7251ZM60.5998 11.9313V16.9094C69.4198 18.171 76.1998 25.7563 76.1998 34.9251V36.0626H79.8548V11.9313H60.5998ZM70.9998 84.3251V74.9253C64.0479 77.4846 56.6881 78.8001 49.2585 78.8001H41.0655C33.5203 78.8001 26.047 77.4433 18.9998 74.8049V84.3251H70.9998ZM18.9998 69.2169C25.9919 72.1089 33.4892 73.6001 41.0655 73.6001H49.2585C56.7178 73.6001 64.1005 72.1546 70.9998 69.3499V52.1501V34.9251C70.9998 30.672 68.9574 26.8959 65.7998 24.5241V39.0689C65.7998 47.3255 60.3018 54.2979 52.7671 56.5249C52.4045 60.4959 49.0654 63.6063 44.9998 63.6063C40.9342 63.6063 37.5951 60.4959 37.2325 56.5249C29.6978 54.2979 24.1998 47.3255 24.1998 39.0689V24.5241C21.0422 26.8959 18.9998 30.672 18.9998 34.9251V52.1501V69.2169ZM13.7998 84.3251V67.5876H5.9998V81.7251C5.9998 83.161 7.16386 84.3251 8.5998 84.3251H13.7998ZM6.50313 62.3876H13.7998V57.3501C10.4647 57.3501 7.61843 59.4433 6.50313 62.3876ZM76.1998 57.3501V62.3876H83.4965C82.3812 59.4433 79.5349 57.3501 76.1998 57.3501ZM83.9998 67.5876H76.1998V84.3251H81.3998C82.8357 84.3251 83.9998 83.161 83.9998 81.7251V67.5876ZM44.9998 58.4063C43.5639 58.4063 42.3998 57.2423 42.3998 55.8064V53.2064C42.3998 51.7704 43.5639 50.6063 44.9998 50.6063C46.4357 50.6063 47.5998 51.7704 47.5998 53.2064V55.8064C47.5998 57.2423 46.4357 58.4063 44.9998 58.4063Z" fill="white"/>
</svg>
